<?xml version="1.0" standalone="no"?>
<!DOCTYPE svg PUBLIC "-//W3C//DTD SVG 20010904//EN"
 "http://www.w3.org/TR/2001/REC-SVG-20010904/DTD/svg10.dtd">
<svg version="1.0" xmlns="http://www.w3.org/2000/svg"
 width="96.000000pt" height="96.000000pt" viewBox="0 0 96.000000 96.000000"
 preserveAspectRatio="xMidYMid meet">
<metadata>
Created by potrace 1.11, written by Peter Selinger 2001-2013
</metadata>
<g transform="translate(0.000000,96.000000) scale(0.100000,-0.100000)"
fill="#000000" stroke="none">
<path d="M90 949 c0 -37 55 -225 68 -235 18 -13 36 -8 26 7 -3 6 1 18 9 27 9
9 19 30 23 47 4 16 35 58 71 94 34 35 63 65 63 67 0 2 -58 4 -130 4 -89 0
-130 -4 -130 -11z"/>
<path d="M343 907 c-70 -58 -110 -112 -129 -173 -7 -23 -18 -51 -25 -62 -9
-15 -10 -33 -3 -69 8 -42 12 -48 34 -48 23 0 26 -5 31 -55 7 -64 -4 -193 -20
-233 -6 -16 -11 -36 -11 -45 0 -15 2 -15 10 -2 5 8 10 11 10 5 1 -29 20 27 25
75 4 30 9 63 12 73 8 31 25 6 22 -37 -1 -22 -1 -49 0 -58 2 -31 19 -19 27 20
l7 37 10 -47 c9 -47 34 -67 56 -45 8 8 11 -2 11 -36 0 -31 9 -65 25 -97 29
-57 32 -72 9 -44 -14 17 -15 17 -10 1 3 -10 6 -30 6 -43 l0 -24 260 0 c215 1
260 3 260 15 0 7 -8 16 -17 18 -17 4 -17 5 0 6 13 1 17 10 17 45 0 39 -3 45
-27 52 -16 4 -31 7 -35 6 -5 -1 -8 5 -8 13 0 12 4 13 19 5 11 -5 27 -10 35
-10 14 0 13 3 -2 18 -23 23 -52 35 -52 21 0 -6 -5 -7 -10 -4 -16 10 -24 -24
-11 -52 10 -22 9 -25 -4 -20 -8 4 -15 2 -15 -4 0 -6 -5 -7 -11 -3 -8 5 -8 9 1
14 15 9 4 30 -15 30 -17 0 -45 38 -45 63 0 15 3 16 21 7 l20 -11 -20 40 c-12
22 -21 47 -21 55 0 10 -6 13 -15 10 -8 -4 -15 -12 -15 -20 0 -17 0 -17 -38 2
-27 13 -32 21 -32 50 0 22 6 37 15 40 8 4 15 13 15 21 0 8 7 30 16 49 13 28
14 42 6 76 -6 23 -8 46 -5 51 3 6 1 7 -5 3 -8 -5 -12 2 -12 21 0 22 2 25 11
13 8 -11 9 -9 3 10 -4 14 -8 43 -9 65 -5 89 -37 151 -106 206 -23 18 -37 35
-30 37 6 2 9 8 5 13 -3 5 -44 9 -92 8 l-87 0 -62 -52z m28 -300 c10 3 19 1 19
-3 1 -5 3 -32 6 -61 4 -36 1 -57 -8 -66 -22 -24 -48 32 -47 101 1 31 3 50 6
41 3 -11 11 -15 24 -12z m265 -445 c-11 -10 -14 3 -8 33 l7 30 3 -28 c2 -16 1
-31 -2 -35z m-99 -54 c-3 -8 -6 -5 -6 6 -1 11 2 17 5 13 3 -3 4 -12 1 -19z
m199 -66 c1 -20 -1 -30 -4 -22 -3 8 -9 18 -15 21 -5 4 -7 14 -4 23 11 28 22
17 23 -22z m181 2 c-3 -3 -12 -4 -19 -1 -8 3 -5 6 6 6 11 1 17 -2 13 -5z"/>
<path d="M650 953 c0 -11 12 -25 37 -46 21 -19 22 -18 37 12 9 16 16 32 16 36
0 3 -20 5 -45 5 -25 0 -45 -3 -45 -7z m40 -23 c0 -5 -2 -10 -4 -10 -3 0 -8 5
-11 10 -3 6 -1 10 4 10 6 0 11 -4 11 -10z"/>
<path d="M0 630 l0 -160 25 0 c14 0 25 -6 26 -12 0 -7 7 1 14 17 8 17 14 24
15 18 0 -7 4 -13 9 -13 15 0 24 92 10 101 -9 5 -10 11 -2 21 15 19 26 71 13
63 -5 -3 -10 0 -10 8 0 16 -63 97 -86 110 -12 7 -14 -18 -14 -153z"/>
<path d="M754 648 c5 -32 39 -157 53 -198 8 -25 20 -67 27 -95 6 -27 15 -48
20 -47 5 2 12 -1 15 -6 3 -6 19 -14 35 -18 25 -6 28 -5 22 14 -5 15 -2 22 14
27 18 6 20 14 19 93 l0 87 -61 50 c-126 104 -149 119 -144 93z"/>
<path d="M0 348 c0 -55 11 -80 26 -57 4 7 3 9 -3 6 -6 -4 -9 11 -7 37 1 23 -2
49 -7 57 -6 9 -9 -5 -9 -43z"/>
<path d="M181 353 c0 -6 -6 -24 -13 -40 -6 -15 -11 -31 -10 -34 0 -3 -6 -6
-14 -6 -17 0 -18 11 -4 38 6 10 7 19 2 19 -11 0 -47 -50 -56 -78 -5 -14 -13
-21 -21 -18 -8 3 -19 -2 -25 -9 -7 -8 -16 -12 -21 -9 -5 3 -9 1 -9 -4 0 -16
13 -22 27 -11 10 9 13 6 13 -17 0 -34 -8 -48 -32 -57 -15 -5 -18 -18 -18 -67
l0 -60 170 0 171 0 24 53 c28 59 30 78 13 95 -19 19 -27 15 -42 -23 -10 -23
-22 -35 -35 -35 -10 0 -21 -6 -24 -12 -6 -19 -19 -3 -21 27 l-1 26 -27 -30
c-34 -38 -48 -39 -48 -5 0 19 -4 25 -15 20 -18 -7 -18 -4 -3 45 6 22 15 39 20
39 16 0 38 68 32 99 -4 17 -10 28 -15 26 -4 -3 -10 5 -12 17 -2 13 -5 18 -6
11z m-88 -215 c7 -27 -1 -38 -13 -18 -12 19 -25 5 -39 -40 l-11 -35 6 40 c10
71 45 102 57 53z m247 -113 c0 -8 -2 -15 -4 -15 -2 0 -6 7 -10 15 -3 8 -1 15
4 15 6 0 10 -7 10 -15z"/>
<path d="M936 214 c-7 -18 0 -34 15 -34 12 0 12 37 0 44 -5 3 -12 -1 -15 -10z"/>
</g>
</svg>
